<svg width="130" height="130" xmlns="http://www.w3.org/2000/svg">
 <g>
  <title>background</title>
  <rect x="-1" y="-1" width="132" height="132" id="canvas_background" fill="none"/>
 </g>

 <g>
  <title>Layer 1</title>
  <path d="m84.506,54.096c-0.74,-16.067 -8.493,-33.409 -19.729,-33.409c-0.163,0 -0.326,0.004 -0.49,0.011c-5.345,0.246 -10.255,4.395 -13.826,11.685c-3.292,6.72 -4.962,15.305 -4.583,23.555c0.403,8.751 4.448,16.286 8.016,22.934l0.84,1.568l0.765,1.143l24.667,0l0.434,-1.324c2.791,-6.807 4.323,-17.076 3.906,-26.163zm-5.756,25.404l-22.25,0c-3.729,-7 -8.21,-14.689 -8.623,-23.654c-0.758,-16.46 6.939,-32.71 16.502,-33.149c9.563,-0.44 17.371,15.033 18.129,31.491c0.374,8.143 -0.889,18.312 -3.758,25.312z" fill="#00adb5" id="svg_2"/>
  <path d="m81.954,92.67c-0.128,-2.768 -0.281,-3.731 -1.025,-6.449l-0.595,-1.471l-23.584,0l-0.364,1.825c-0.375,2.517 -0.511,4.969 -0.405,7.29c0.448,9.748 5.321,15.568 13.035,15.568c0,0 0,0 0.001,0c0.23,0 0.462,-0.005 0.694,-0.016c8.131,-0.373 12.708,-6.635 12.243,-16.747zm-12.335,14.75c-6.07,0.281 -11.179,-3.623 -11.64,-13.646c-0.103,-2.238 0.04,-4.592 0.385,-6.903l20.636,-0.122c0.71,2.593 0.837,3.429 0.956,6.013c0.461,10.023 -4.268,14.379 -10.337,14.658z" fill="#00adb5" id="svg_3"/>
  <path d="m47.553959,51.151077c0,0.539566 0,1.438847 0,2.697842c0,0.179855 0,1.079136 0,1.438847c0,0.179855 -0.206486,0.760498 0,1.258995c0.194675,0.469986 0.63678,0.908905 0.719425,1.258991c0.0924,0.391411 0.374157,0.787125 1.079136,1.079136c0.332329,0.137653 0.787121,0.374157 1.079136,1.079136c0.068829,0.166168 0.359711,0.359715 0.53957,0.719425c0.179855,0.359711 -0.026627,0.580643 0.179855,1.079136c0.097336,0.234993 0.583515,0.716728 0.539566,0.359715c-0.181213,-1.472019 -0.806461,-3.357979 -1.079136,-5.215828c-0.287292,-1.957447 -0.179855,-3.776978 -0.179855,-5.935253c0,-1.258991 0,-2.338127 0,-2.877697c0,-0.179855 0,-0.719425 0,-0.719425c0,-0.539566 0,-0.719421 0,-0.899281l0,-0.179855" id="svg_8" stroke-width="1.5" stroke="#00adb5" fill="none"/>
  <path d="m57.985611,40.179852c0,0.719425 0.359715,1.97842 0.359715,3.237411c0,2.338131 0.089886,5.391472 0.179855,8.27338c0.101021,3.235836 -0.215878,5.947067 0,7.91367c0.180935,1.648293 0.111774,1.827431 0.359711,2.877697c0.184799,0.782825 0.363766,2.169052 0.53957,3.597122c0.181213,1.472023 0.359711,3.057556 0.359711,4.316544c0,1.258995 0.719425,2.697845 0.719425,3.237411c0,0.719429 0,1.07914 0,1.258995c0,0.359711 0,0.899277 0,1.258995c0,0.539566 0.08643,1.086098 0,1.618698c-0.091103,0.561417 -0.359711,1.258995 -0.719425,1.43885c0,0 -0.393936,-0.338402 -0.719425,-0.899277c-0.403721,-0.695686 -0.359711,-1.978416 -0.359711,-2.877701c0,-1.079132 0,-1.258995 0,-1.798561c0,-0.539566 0.204071,-1.098602 0,-2.158272c-0.183159,-0.95108 -0.359711,-1.798561 -0.359711,-2.338127c0,-0.179855 -0.165039,-0.609154 -0.359715,-1.07914c-0.275311,-0.664658 0,-1.978416 0,-3.597122c0,-1.258991 0,-3.057552 0,-4.676258c0,-1.978416 -0.089878,-3.952343 -0.179855,-6.654675c-0.065838,-1.977322 0,-4.676258 0,-5.755398c0,-1.798561 -0.089703,-4.127106 -0.179855,-5.395679c-0.140247,-1.973442 0,-3.417267 0,-4.136692c0,-1.258991 0,-2.877697 0,-3.956833c0,-0.719425 0,-1.798561 0,-3.057556c0,-1.258991 0,-2.338129 0,-3.057552l0,-0.53957l0,0l0,-0.359711" id="svg_9" stroke-width="3.5" stroke="#00adb5" fill="none"/>
  <polyline stroke-linecap="round" id="svg_10" points="61.942446249715864,23.453235825709005 61.942446249715864,23.09352361979322 61.942446249715864,22.913667516835336 " stroke-width="3.5" stroke="#00adb5" fill="none"/>
  <path d="m61.942448,22.913668c0.179855,0 0.628815,-0.016584 0.719421,0.719423c0.087902,0.714035 0.035812,0.731037 0.179859,1.618706c0.091103,0.561411 0.179855,1.798561 0.179855,2.338129c0,0.359713 0.088753,0.697582 0.179855,1.258993c0.08643,0.5326 0,0.539568 0,0.719425c0,0.359711 0.179855,0.539568 0.179855,0.899281c0,0.359711 0.179855,0.899281 0.179855,1.079136c0,0.719425 0.473648,1.622749 0.539574,2.158272c0.090607,0.736012 0.359711,1.43885 0.359711,2.158276c0,0.899281 0,1.438847 0,2.517986c0,0.359711 -0.171791,1.177906 -0.359711,1.798557c-0.260597,0.860695 0,1.97842 0,2.517986c0,1.079136 0.272095,2.364094 0,3.776978c-0.183163,0.95108 -0.351563,2.338314 -0.359715,2.517986c-0.090023,1.984535 -0.055801,3.063683 -0.179859,4.316547c-0.271103,2.737881 -0.719421,4.136692 -0.719421,5.215828c0,1.258991 0,2.158272 0,2.697842c0,0.539566 0,1.079136 0,1.438847c0,1.618706 0,2.338127 0,3.057556c0,1.798561 0,2.517982 0,3.776978c0,0.539566 0,0.899277 0,1.618706c0,0.539566 0,1.079132 0,1.618706c0,0.539566 0,1.258987 0,1.978416c0,0.719421 0,1.258987 0,1.43885c0,0.359711 0,0.719421 0,0.899277c0,0.179855 0.179855,0.539566 0.179855,0.539566c0,0.179855 0.127178,0.592255 0,0.719429c-0.127178,0.127174 0.179855,0 0.719425,-0.179855c0.53957,-0.179855 1.438847,-0.359718 1.618702,-0.539574l0.179855,-0.179855" id="svg_11" stroke-width="3.5" stroke="#00adb5" fill="none"/>
  <path d="m66.978416,78.848915c0.179855,-0.179855 0.179855,-0.359711 0.179855,-1.258995c0,-0.899277 0.089249,-1.96183 0.179855,-2.697838c0.109879,-0.892548 0,-2.158272 0,-2.697845c0,-0.539566 -0.171791,-1.357758 -0.359711,-1.978416c-0.156357,-0.516418 -0.34877,-1.263443 -0.719421,-2.158272c-0.524178,-1.26548 -0.893745,-1.523888 -1.258995,-3.597122c-0.218437,-1.239895 -0.304016,-2.941357 -0.899277,-4.676258c-0.522079,-1.52161 -1.182495,-2.700558 -1.258995,-3.776978c-0.090157,-1.268574 -0.179859,-2.158272 -0.179859,-3.597122c0,-1.798561 0,-3.597122 0,-5.035973c0,-1.079136 -0.044796,-2.878815 0,-3.776978c0.090042,-1.805286 0.537216,-3.013866 0.719425,-4.136688c0.115238,-0.710136 -0.476273,-1.879673 0,-3.237411c0.381203,-1.086723 0.442451,-2.194424 0.719429,-3.237408c0.372177,-1.40147 0.719421,-1.618706 0.719421,-2.877699c0,-0.719425 -0.120148,-1.300245 0.179855,-1.978418c0.262344,-0.593044 0.386284,-0.709246 0.719421,-1.618704c0.195625,-0.534052 0.359718,-0.899281 0.359718,-1.079138c0,-0.359711 0.087456,-0.507868 0.179855,-0.899281c0.041321,-0.175045 0,-0.179855 0,-0.359711c0,-0.359713 0,-0.53957 0,-0.53957c-0.179855,0 -0.719429,0 -1.07914,0l-0.359711,0l0,0l-0.179855,0" id="svg_12" stroke-width="3.5" stroke="#00adb5" fill="none"/>
  <path d="m56.906475,79.748199c-0.719425,0 -0.894337,-0.116463 -1.079136,-0.899284c-0.123966,-0.525131 -0.179855,-0.719421 -0.179855,-1.07914c0,-0.359711 -0.179859,-0.539566 -0.179859,-0.899277c0,-0.179855 0,-0.359711 0,-0.719421c0,-0.179863 -0.359711,-0.719429 -0.359711,-0.899284c0,-0.359711 0,-0.539566 0,-0.539566c-0.179855,-0.719429 -0.268608,-0.697586 -0.359711,-1.258995c-0.028809,-0.177536 -0.232536,-0.772102 -0.359715,-0.899277c-0.25436,-0.254356 -0.359711,-1.07914 -0.359711,-1.618706c0,-0.539574 0.028625,-1.469719 -0.179855,-2.158279c-0.18792,-0.620651 -0.359715,-0.539566 -0.359715,-0.719421c0,-0.359711 -0.089249,-0.52298 -0.179855,-1.258995c-0.043949,-0.357018 0,-0.719421 -0.359711,-0.719421c-0.179855,0 -0.553261,-0.068825 -0.719425,0c-0.234993,0.097336 -0.359711,1.258995 -0.359711,2.158272c0,0.359711 0,0.539566 0,0.719429c0,0.359711 0.507988,0.557175 0.719421,0.899277c0.094555,0.152992 0.179859,0.179855 0.179859,-0.719421c0,-0.899284 -0.089897,-1.435303 -0.179859,-4.856117c-0.018913,-0.719177 -0.507988,-1.636311 -0.719421,-1.978416c-0.189114,-0.305992 0,-0.53957 -0.179859,-0.53957c-0.179855,0 -0.429295,-0.165035 -0.899281,-0.359711c-0.332329,-0.137653 -0.359711,0 -0.539566,0c-0.359715,0 -0.569241,0.001225 -0.53957,0.359711c0.090237,1.090294 0.558556,1.836536 0.719425,2.158276c0.402172,0.804337 1.146839,0.554008 1.43885,1.258995c0.137653,0.332329 0,0.899277 0,0.899277c-0.359715,-0.179855 -0.359715,-0.899277 -0.359715,-1.798561c0,-0.719425 0,-1.798561 0,-2.877697c0,-0.899281 0.123966,-1.812996 0,-2.338131c-0.0924,-0.391411 -0.899281,-1.438847 -0.899281,-1.618702c0,-0.179859 0.137653,-0.566952 0,-0.899281c-0.097336,-0.234997 -0.295452,-0.499466 -0.539566,-0.179859c-0.556671,0.728817 -0.127739,1.266712 -0.179859,1.43885c-0.18792,0.620655 -0.359711,0.719425 -0.359711,1.079136c0,0.179855 0,-1.438847 0,-3.417267c0,-1.978416 0.179855,-3.057552 0.179855,-3.776978c0,-0.359711 0,-0.719425 0,-1.079136c0,-0.179855 0,-0.359711 0,-0.359711c0,-0.359715 0,-0.719425 0,-1.07914c0,-0.719421 0,-1.079136 0,-1.438847c0,-0.359715 0,-0.53957 0,-1.079136c0,-0.179859 0,-0.719425 0,-1.07914c0,-0.539566 0,-0.719421 0,-0.899281c0,-0.179855 -0.381535,-0.517746 0,-0.899281c0.127178,-0.127178 0.465073,-0.465069 0.719425,-0.719421c0.381535,-0.381535 0.242119,-0.846306 0.53957,-1.258995c0.235153,-0.326256 0.49556,-0.743164 0.899281,-1.438847c0.325489,-0.560879 0.359711,-0.899281 0.539566,-1.258995c0.179855,-0.359711 0.179855,-1.079136 0.359715,-1.258991c0.359711,-0.359711 0.44223,-0.484432 0.539566,-0.719425c0.068829,-0.166164 0,-0.359711 0,-0.719425c0,-0.179855 0,-0.539566 0,-0.539566c0,-0.179855 0.021282,-0.63456 0.179855,-0.719425c0.571751,-0.305992 0.222057,-0.746807 0.359715,-1.079136c0.097336,-0.234993 -0.009254,-0.413437 0.179855,-0.719425c0.211433,-0.342106 0.330902,-0.362034 0.359711,-0.53957c0.091103,-0.561409 0.147678,-0.952999 0.719425,-1.258991c0.158573,-0.084866 -0.021824,-0.337893 0.359711,-0.719425c0.127178,-0.12718 0.44717,-0.148155 0.53957,-0.539568c0.041321,-0.175045 0.44223,-0.664286 0.53957,-0.899281c0.137657,-0.332331 0.328011,-1.171535 0.719421,-1.079136c0.175045,0.041323 -0.421684,0.673168 -1.079136,1.618704c-0.598701,0.861042 -1.061596,2.610138 -1.978416,4.316547c-1.34594,2.505096 -1.923119,2.911152 -2.158272,3.237411c-0.148724,0.206345 -0.179855,0.359711 -0.179855,0.719421c0,0.179859 -0.151051,0.541893 -0.179859,0.719425c-0.091103,0.561413 -0.268608,0.517727 -0.359711,1.079136c-0.028809,0.177532 0,0.179855 0,0.359715c0,0.359711 0,1.079136 0,1.798561c0,0.179855 0.179855,0.539566 0.53957,0.719421c0,0 0.285992,-0.057217 0.719421,-0.539566c0.938892,-1.044861 1.712231,-2.238449 2.158276,-3.237411c0.469536,-1.051575 0.719421,-1.438847 0.719421,-2.338127c0,-0.179855 0.179859,-0.179855 0.179859,-0.719425c0,-0.53957 0.179855,-0.719425 0.179855,-0.53957c0,1.43885 -0.344109,3.423218 -0.899281,4.856117c-0.699833,1.806274 -1.43885,3.417263 -1.618706,4.676258c-0.179855,1.258991 -0.719425,3.057552 -0.719425,3.776978c0,0.719425 -0.08643,0.726391 0,1.258991c0.091106,0.561413 -0.060188,0.752056 0.179859,1.618706c0.279942,1.010677 0.240208,1.999279 0.539566,4.136692c0.181614,1.296715 0.450562,2.341805 0.53957,3.417267c0.090237,1.090294 0.775314,3.071987 0.899281,3.597118c0.0924,0.391415 0.539566,0.719425 0.539566,1.07914c0,0.179855 0.179855,1.079132 0.179855,1.258995c0,2.338127 0,3.057549 0,4.496399c0,1.07914 0,1.978416 0,2.877701c0,0.179855 0.168015,1.233032 0.53957,1.079132c0.525459,-0.217651 -0.471882,-1.460564 -1.079136,-3.237411c-0.810139,-2.370491 -1.032104,-5.053261 -1.978416,-7.553955c-0.685593,-1.811729 -1.361423,-3.26133 -1.618706,-3.956833c-0.27906,-0.754379 -0.604187,-1.26828 -0.719425,-1.978416c-0.091103,-0.561413 -0.359711,-1.079136 -0.359711,-1.978416c0,-1.079136 0,-1.43885 0,-2.338131c0,-0.179855 0,-0.539566 0,-0.719425c0,-0.179855 0.179855,-0.539566 0,-0.539566c-0.719425,0 -0.08411,1.593056 -0.53957,3.237408c-0.442627,1.598022 -0.75523,3.069168 -0.899281,3.956837c-0.091103,0.561409 -0.179855,1.079136 -0.179855,1.079136c0,0.179855 0.171791,0.63834 0.359711,1.258991c0.05212,0.172138 0.093399,0.460106 0.53957,1.079136c0.235153,0.32626 0.754635,-0.340233 1.43885,-1.618702c0.948837,-1.772919 1.782955,-3.962788 2.338127,-5.395683c0.699837,-1.806274 0.615116,-2.658958 1.079136,-3.237411c0.251652,-0.313709 0.359715,-0.719425 0.359715,-1.258991c0,-0.899281 0.537811,-1.221272 0.719421,-2.517986c0.074841,-0.534355 0.232536,-1.131813 0.359715,-1.258991c0.254356,-0.254356 0.4492,-0.552917 0.539566,0.359711c0.141781,1.431847 0,3.956833 0,7.553955c0,3.597122 0,7.014389 0,8.453239c0,1.798557 -0.084866,2.71912 0,2.877697c0.305992,0.571747 0.844143,0.801941 1.07914,0.899277c0.166164,0.068825 0.179855,-1.438843 0.179855,-2.338127c0,-1.978416 0,-5.035969 0,-9.892086c0,-2.158272 0.230476,-3.6157 0,-5.035969c-0.091103,-0.561413 -0.772568,-2.13792 -1.43885,-3.956837c-0.391254,-1.068104 -0.719425,-1.798561 -0.719425,-2.158272c0,-0.53957 0,-1.079136 0,-1.978416c0,-0.179855 -0.179855,-1.079136 -0.179855,-1.258995c0,-0.359711 -0.357964,-0.863834 0,-0.899281c0.912628,-0.090366 0.025192,1.845558 1.079136,5.035973c0.785789,2.378677 0.899281,5.215828 1.258995,7.733814c0.359711,2.517982 0.87009,2.969994 1.438847,4.676258c0.170624,0.511879 0.374195,0.806999 0.719425,1.258991c0.393623,0.515354 0.889397,1.132195 1.258995,2.697842c0.206612,0.875225 0,1.798561 0,2.338131c0,0.539566 0.068829,0.733112 0,0.899281c-0.09734,0.234993 -1.07914,-1.798561 -1.07914,-2.877701c0,-0.719421 0,-1.438847 0,-3.417263c0,-0.899281 -0.539566,-3.776978 -0.539566,-5.035973c0,-1.079136 -0.059338,-2.34058 0,-3.057552c0.090237,-1.090294 0.359711,-1.978416 0.359711,-2.517986c0,-0.899281 0,-1.258991 0,-1.978416c0,-0.53957 -0.137657,-0.746807 0,-1.079136c0.292011,-0.704983 0.53957,-0.719425 0.53957,-1.258995c0,-0.539566 0,-1.079136 0,-1.618706c0,-0.899281 0,-1.798561 0,-2.338127c0,-0.53957 0.179855,-1.43885 0.179855,-2.338131c0,-0.539566 -0.254353,-1.004639 0,-1.258991c0.127178,-0.127178 -0.026627,-0.580643 0.179855,-1.079136c0.097336,-0.234993 0.179855,-0.53957 0.179855,-1.798561c0,-0.53957 0,-0.719425 0,-1.258993c0,-0.359713 0,-0.539568 0,-0.899281c0,-0.539568 -0.148277,-0.737032 -0.359711,-1.079138c-0.094555,-0.152994 -0.255192,-0.255188 -0.53957,-0.539568c-0.284378,-0.284378 -0.359711,-0.359713 -0.719421,-0.359713c-0.53957,0 -0.844143,-0.082518 -1.07914,-0.179855c-0.498497,-0.20648 -0.622086,0.055138 -0.719421,-0.179855c-0.068829,-0.166166 0.189995,-0.300179 0.359711,-0.359713c1.086723,-0.381201 1.105995,-0.804726 1.258991,-0.899281c0.34211,-0.211433 0.664288,-0.622087 0.899281,-0.719425c0.498497,-0.206486 1.227295,-0.087456 1.618706,-0.179855c0.35009,-0.082645 0.899281,0 1.079136,-0.179857c0,0 0.089489,0.346367 0.179859,1.258993c0.070892,0.715923 0.03825,1.620064 0,2.158274c-0.090157,1.268576 -0.269562,2.688259 -0.359715,3.956833c-0.025501,0.35881 0,0.899281 0,0.899281c0,0.179859 0.211422,0.327217 0.53957,0.179859c1.975693,-0.887215 1.860275,-2.855406 2.158272,-3.776979c0.228157,-0.705595 0.232536,-1.311672 0.359711,-1.438848c0.381531,-0.381533 0,-0.719425 0,-0.899281c0,-0.359713 0,-0.53957 0,-0.719425c0,-0.179855 0,-0.359713 0,-0.539568c0,-0.179857 0,-0.539568 0,-0.719425c0,-0.179855 -0.052681,-0.592247 -0.179855,-0.719423c-0.381531,-0.381533 0,-0.719425 0,-0.899281c0,-0.359713 0.00061,-0.554405 0.179855,-0.53957c1.090294,0.090237 1.798561,0.359713 1.978416,0.359713c0.359718,0 0.746292,-0.094555 0.899284,0c0.34211,0.211433 0.507988,0.197462 0.719421,0.539568c0.094559,0.152996 -0.119156,0.595325 0.179855,1.079138c0.13372,0.216366 0.539574,0.359713 0.539574,0.719423c0,0.179857 0.085297,0.566431 0.179855,0.719425c0.211433,0.342106 0.447166,0.148155 0.539566,0.539568c0.082642,0.35009 0.232529,0.95196 0.359711,1.079138c0.127174,0.127176 0.179855,0.179855 0.359711,0.719423c0,0 0.031136,0.513079 0.179863,0.719425c0.235153,0.326256 0.277069,0.549191 0.359711,0.899281c0.0924,0.391413 0.060699,0.775181 0.359711,1.258993c0.13372,0.216366 0.631966,0.328014 0.539566,0.719425c-0.041321,0.175045 -0.359711,-0.359715 -0.539566,-1.079138c-0.179855,-0.719425 -0.268608,-1.23715 -0.359711,-1.798561c-0.057617,-0.355068 0,-0.899281 0,-1.798561c0,-0.899281 0.179855,-1.258993 0.179855,-1.438848c0,-0.359713 -0.119156,-0.124102 0.179855,0.359711c0.13372,0.216368 0.539566,0.719425 0.539566,0.719425c0,0.179855 0,0.539568 0,0.719425c0,0 0.179855,0.179853 0.539574,0.539568c0.179855,0.179855 0.262375,0.48443 0.359711,0.719423c0.068825,0.166166 0.393166,0.304417 0.719421,0.53957c0.412682,0.297447 0.539566,0.539566 0.719429,0.719423c0.179855,0.179855 0.166916,0.469612 0.539566,0.899282c0.263504,0.303822 0.539566,1.438847 0.899277,1.258991c0.359711,-0.179855 -0.304573,-0.9818 -0.539566,-1.079136c-0.166168,-0.068829 -0.231758,-0.156166 -0.539566,-0.899281c-0.217651,-0.525463 -0.539574,-1.079138 -0.899284,-1.798561c-0.179855,-0.359713 -0.128441,-0.577641 -0.539566,-1.079138c-0.161255,-0.196703 -0.304413,-0.573023 -0.539566,-0.899281c-0.14872,-0.206343 -0.19355,-0.290882 -0.359718,-0.359713c-0.469986,-0.194674 -0.899277,-0.539568 -1.079132,-0.719423c0,0 -0.179855,-0.359713 -0.539566,-0.359713c-0.179863,0 -0.179863,0.179855 -0.179863,0.359713c0,0 0,0.719423 0,1.258993c0,0.539568 0,1.079136 0,1.618704c0,0 -0.062263,0.666451 -0.359711,1.079138c-0.235153,0.326256 -0.726501,1.719414 -1.258987,3.237408c-0.852394,2.429985 -0.896568,5.509197 -1.258995,8.453239c-0.153824,1.249557 0,1.618702 0,2.158272c0,0.179855 0,0.53957 0,0.359711c0,-1.258991 0,-3.057552 0,-5.215824c0,-1.798561 0,-3.597122 0,-5.035973c0,-1.258991 0,-2.517984 0,-3.417265c0,-0.539568 0,-0.719425 0,-0.899281c0,-0.179857 0,-0.539568 0,-1.079138c0,-0.539568 0,-0.899281 0,-1.079136c0,-0.179855 0.178986,-0.701702 0,-0.719425c-0.912628,-0.090368 -0.287704,4.479803 -0.539566,6.474819c-0.316185,2.50452 -0.179855,4.316547 -0.179855,6.115108c0,0.359711 0,1.079136 0,1.978416c0,0.899281 0,1.43885 0,2.697842c0,1.079136 0.719421,3.597122 0.719421,5.035973c0,0.539566 0,0.719425 0,0c0,-1.258995 -0.179855,-3.237411 -0.179855,-5.215828c0,-2.697842 0.176628,-4.685925 0,-6.294964c-0.180939,-1.648293 -0.449333,-2.866539 -0.539566,-3.956833c-0.074173,-0.896217 0,-2.158274 0,-2.697842c0,-0.53957 0,-0.719425 0,-1.258993c0,-0.359713 0,-1.079138 0,-1.618706c0,-0.539568 0,-1.079136 0,-1.258993c0,-0.539568 0,-0.719423 0,-0.899281c0,-0.179855 0.067696,-0.598011 -0.179863,-0.539568c-0.553535,0.130678 -0.714478,1.195595 -0.899277,1.978418c-0.165291,0.700178 -0.508469,2.294117 -1.07914,4.496403c-0.734428,2.834236 -1.078514,5.013653 -1.258987,7.194244c-0.089005,1.075459 -0.359715,1.978416 -0.359715,2.338127c0,0.53957 0,0.53957 0,0.719425c0,0.179855 0.089489,0.526222 0.179859,1.43885c0.053169,0.536942 0.716118,1.387051 0.899277,2.338127c0.068024,0.353226 0.124718,0.816761 0.359711,0.719425c2.492477,-1.032421 0.629387,-4.669533 0.719429,-6.474819c0.062721,-1.257431 -0.275314,-2.57275 0,-3.237411c0.097336,-0.234993 0.179855,-0.539566 0.179855,0.359715c0,3.776978 0.374199,5.601616 0,8.27338c-0.363228,2.593433 -1.435547,4.624462 -1.618706,5.575539c-0.306107,1.5895 0,3.057552 0,3.057552c0,0.53957 -0.317162,0.294086 -1.798561,-4.316544c-0.470074,-1.463032 -1.782612,-3.255981 -3.057556,-10.431656c-0.410233,-2.308872 -0.539566,-4.856113 -0.539566,-6.83453c0,-1.798563 -0.359715,-2.877699 -0.359715,-3.057556c0,-0.539568 0,-1.079136 0,-1.618704c0,-0.539568 -0.535526,-1.732635 0,-1.798561c0.736008,-0.090607 1.155281,5.742155 1.618706,8.633093c0.430798,2.687408 0.458076,4.108746 0.719425,5.215828c0.292194,1.237751 0.631523,3.242798 0.719425,3.956833c0.181213,1.472019 0.110065,2.719666 0.359711,4.136692c0.365253,2.073235 0.898552,3.572811 1.079136,5.575539c0.080761,0.895645 0.275852,1.636082 0.53957,2.697842c0.137104,0.551983 0.332447,0.907391 0.719425,2.158272c0.336182,1.086697 0.306541,1.62133 0.359711,2.158272c0.09037,0.912628 0.539566,1.618706 0.539566,2.877701c0,1.079132 0.31839,1.983231 0.359711,2.158272c0.092407,0.391411 0.269348,0.885941 0.359718,1.798561c0.070892,0.715919 0,1.618706 0,2.517982c0,0.539574 0,1.43885 0,1.798561c0,0.359718 0,0.359718 0,0.719429c0,0.179855 -0.232536,0.232529 -0.359718,0.359711c-0.381531,0.381531 -0.179855,0.719421 -0.179855,0.899277c0,0.179863 0,0.539574 0,0.719429c0,0.359711 0,0.539566 0,0.899277c0,0.359718 -0.041321,0.544388 0,0.719429c0.0924,0.391411 0.539574,0.359711 0.539574,0.359711c0.179855,0 0.507988,0.017609 0.719421,0.359711c0.18911,0.305984 0,0.359711 -0.359711,0.719429c-0.359711,0.359711 -0.88385,0.25547 -0.539566,0.359711c0.620651,0.18792 0.732338,0.304176 1.618706,0.539566c0.549698,0.145981 0.867577,0.272255 1.258987,0.179855c0.175041,-0.041321 0.179855,-0.179855 0.179855,-0.359711c0,-0.359711 -0.119156,-0.415466 0.179855,-0.899284c0.13372,-0.21637 0.351654,-0.098763 0.539574,-0.719421c0.156357,-0.516411 0.347244,-0.756798 0.719421,-2.158272c0.046165,-0.173828 -0.077431,-0.923203 0.179855,-1.618706c0.27906,-0.754379 0.359711,-1.258995 0.359711,-1.618706c0,-0.179855 -0.156219,-0.801109 -0.899277,-0.179855c-1.301735,1.088341 -2.388458,3.132813 -5.035973,4.316544c-3.115318,1.392891 -5.575539,1.798561 -6.115108,1.798561c-1.798561,0 -2.570663,0.127182 -2.697842,0c-0.508709,-0.508705 -0.021976,-1.260338 0,-1.438843c0.090607,-0.736015 0.442234,-1.024002 0.53957,-1.258995c0.137657,-0.332329 0.359711,-0.899284 0.359711,-0.899284c0,-0.359711 0,-0.719421 0,-0.719421c0,-0.179855 0,-0.539566 0,-0.719421c0,-0.179863 0.179859,-0.539574 0.359715,-0.719429c0,0 0.367428,-0.231972 0.539566,-0.179855c1.241314,0.375839 1.951077,1.633041 2.338131,2.338127c0.504662,0.919327 1.203697,2.191734 1.43885,2.51799c0.148724,0.206345 0.30759,0.367432 0.359711,0.539566c0.18792,0.620651 0.609146,0.88446 1.079136,1.07914c0.166164,0.068825 0.726166,-0.109879 1.618706,0c0.736008,0.090607 1.258995,0.179855 1.618706,0.179855l0.359711,0l0.359711,0l0.179855,0" id="svg_13" fill-opacity="null" stroke-opacity="null" stroke-width="3.5" stroke="#00adb5" fill="none"/>
  <path d="m57.6259,79.02877c0,0 -0.53957,0 -0.53957,-0.359711c0,-0.719421 0.179855,-1.258995 0.179855,-1.43885c0,-0.179855 -0.055138,-0.44223 0.179859,-0.539566c0.166164,-0.068825 0.44223,0.055138 0.539566,-0.179855c0.068829,-0.166168 0.269691,-1.073021 0.359715,-3.057556c0.057053,-1.257698 -0.230392,-4.867493 0,-7.194244c0.180737,-1.825256 0.359711,-3.237408 0.359711,-4.856113c0,-1.978416 0,-3.057552 0,-7.194244c0,-1.798561 -0.012772,-3.955807 -0.179855,-6.115108c-0.194752,-2.516876 -0.287388,-4.144035 -0.359715,-4.496403c-0.275406,-1.341766 -0.740704,-1.893547 -0.899281,-1.978416c-0.571747,-0.305992 -0.417923,-1.352551 -0.719421,-1.618706c-0.486153,-0.429165 -1.04744,-1.346447 -1.43885,-1.438847c-0.350086,-0.082645 -0.517727,-0.448467 -1.079136,-0.53957c-0.177532,-0.028809 -0.622089,-0.124718 -0.719425,-0.359711c-0.137657,-0.332333 -0.179855,-0.359715 -0.179855,-0.719425c0,-0.359711 -0.359711,-0.359711 -0.359711,-0.719425c0,-0.359711 0,-0.359711 0,-0.539566c0,-0.359715 0,-0.53957 0,-0.53957c0,-0.179855 0,-0.53957 0,-0.719425c0,0 -0.08746,-0.328011 -0.179859,-0.719425c-0.041321,-0.175045 0,-0.359711 0,0c0,0.719425 0,1.258995 0,1.618706c0,0.179855 0,0.719425 0,1.079136c0,0.179859 0,0.53957 0,1.07914c0,0.899281 0.064926,2.003998 0.359715,3.057552c0.521965,1.865463 0.719425,2.517986 0.719425,3.237408c0,0.359715 0.178101,0.861557 0.359711,2.158276c0.024944,0.178116 0.179855,0.539566 0.179855,0.719425c0,0.359711 0,0.719421 0,0.719421c-1.618706,-0.719421 -1.839569,-1.668537 -2.158272,-2.338127c-0.386486,-0.811996 -0.650597,-0.912971 -0.719425,-1.079136c-0.097336,-0.234997 -0.359711,-0.179859 -0.359711,1.258991c0,0.899281 -0.35796,2.300407 -0.53957,3.597122c-0.174622,1.246822 0,1.798561 0,2.158272c0,0.179859 0,0.719425 0,0.899281c0,0.53957 0,0.53957 0,1.43885c0,0.179855 0.174911,0.47617 0.359711,1.258991c0.165291,0.70018 0.177505,1.035454 0.359715,2.158276c0.08643,0.5326 0.179855,1.438847 0.719425,2.697842c0.539566,1.258991 0.539566,1.618702 0.539566,1.618702c0.179855,0.179859 0.127735,0.547287 0.179855,0.719425c0.18792,0.620659 0.53957,0.899281 0.53957,1.258995c0,0.539566 -0.026627,0.940353 0.179855,1.438847c0.097336,0.234993 0.179855,0.359711 0.179855,0.539566c0,0.359718 0.359715,1.798561 0.359715,1.978424c0,0.359711 0,0.539566 0,0.719421c0,0.179855 0,0.539566 0,0.719421l0.179855,0.359711l0,0" id="svg_16" fill-opacity="null" stroke-opacity="null" stroke-width="3.5" stroke="#00adb5" fill="none"/>
  <path d="m72.3741,33.525177c0,0.179855 0,0.53957 0,1.978416c0,1.07914 0,1.43885 0,3.057556c0,1.618702 0,2.697842 0,3.417267c0,0.719421 0.09343,2.165237 0.179855,2.697838c0.091103,0.561413 -0.021812,1.634964 0.179855,2.877701c0.091103,0.561409 -0.177162,1.035183 0.179855,1.079136c1.472023,0.181217 0.411209,-3.42881 0.539574,-4.136692c0.274185,-1.512032 0.539566,-2.338127 0.539566,-2.697842c0,-0.719425 0,-1.079136 0,-1.438847c0,-0.359715 0,-0.719425 0,-1.258995c0,-0.539566 0,-1.079136 0,-1.618702c0,-0.179859 0,-0.719425 0,-0.899281c0,0 0.119156,-0.595325 -0.179855,-1.07914c-0.13372,-0.216366 -0.179855,-0.359711 -0.179855,-0.539566c0,-0.179855 0,-0.53957 0,-0.53957c0,-0.179855 0.541374,-0.230854 1.258987,-0.179855c1.268578,0.090153 1.722969,0.927494 2.158279,1.978416c0.153908,0.371559 0.899277,1.43885 0.899277,1.798561c0,0.179855 0.233574,0.8671 0.539566,1.43885c0.169731,0.317146 -0.201675,0.73568 0,1.978416c0.09111,0.561413 0.179863,1.438847 0.179863,1.978416c0,0.179855 0.174911,1.015736 0.359711,1.798561c0.041321,0.175045 0,0.53957 0,0.719425c0,0.719425 0,0.719425 0,1.079136c0,0.359711 0.176613,1.045124 0,1.079136c-0.95108,0.183159 -0.568237,-1.495277 -1.43885,-3.597122c-0.461708,-1.11467 -0.719421,-2.517982 -0.719421,-4.316547c0,-0.719421 0,-1.079136 0,-1.258991c0,-0.359711 0,-0.539566 0,0.359711c0,0.53957 0.269745,2.514244 0.359711,5.755398c0.069862,2.517017 0.141602,4.810696 0.539566,6.294964c0.283325,1.056698 -0.058235,-0.202572 0.179855,-1.43885c0.366325,-1.902157 1.049828,-3.241375 1.258995,-4.676258c0.157806,-1.082581 0.052673,-1.311672 0.179855,-1.43885c0.127174,-0.127178 0.539566,-0.539566 0.539566,-0.719421c0,-0.179859 0.041321,-1.443661 0,-1.618706c-0.0924,-0.391415 -0.179855,-0.53957 -0.359711,-0.53957c-0.359711,0 -0.843979,-0.393166 -1.07914,-0.719425c-0.297447,-0.412682 -0.484268,-0.573021 -0.719421,-0.899281c-0.297447,-0.412685 -0.565514,-0.527721 -0.719421,-0.899277c-0.43531,-1.050926 -0.507996,-0.916889 -0.719429,-1.258995c-0.18911,-0.305988 0.104523,-0.614902 -0.179855,-0.899281c-0.284378,-0.284378 -0.500618,0.204578 -0.179855,1.618706c0.251625,1.109329 1.214539,2.007301 1.798561,3.417267c0.068825,0.166164 0.179855,0.359711 0.359711,0.359711c0.359711,0 0.656273,-0.324505 1.07914,0.359715c0.094559,0.152992 0.675468,0.722118 0.719421,1.079136c0.090607,0.736008 0.153221,0.760494 0.359711,1.258991c0.097343,0.234997 0.205818,0.527725 0.359718,0.899281c0.217651,0.525463 0.539566,0.899281 0.539566,1.798561c0,0.359711 0.087456,0.687725 0.179855,1.079136c0.12397,0.525135 0,1.079136 0,1.258995c0,0.359711 0,0.719421 0,0.899281c0,0.359711 -0.068832,0.733112 0,0.899281c0.194672,0.469986 0.359711,0.899281 0.359711,1.258991c0,0.359711 -0.028809,0.721748 0,0.899281c0.091103,0.561413 0.179855,1.079136 0.179855,1.43885c0,0.539566 0,0.719421 0,1.618702c0,0.359715 0,0.53957 0,0.899281c0,0.53957 0,0.899281 0,1.07914c0,1.079136 -0.44223,1.563564 -0.539566,1.798561c-0.068825,0.166164 0.169731,0.402275 0,0.719421c-0.305992,0.571751 -0.42041,0.775181 -0.719421,1.258995c-0.13372,0.216366 -0.63678,0.549191 -0.719429,0.899281c-0.0924,0.391411 -0.184669,0.940605 -0.359711,0.899281c-0.391411,-0.0924 -0.981796,-1.383709 -1.07914,-1.618706c-0.068832,-0.166164 -0.719421,-1.079136 -0.719421,-1.258995c0,-0.179855 -0.359711,-1.798557 -0.539566,-2.877697c0,0 0,-0.719421 0,-0.719421c0,-0.179859 0,-0.719425 0,-0.719425c0,-0.53957 0,-0.719425 0,-1.258995c0,-0.179855 0,-0.539566 0,-0.899281c0,-0.359711 0,-1.258991 0,-1.438847c0,-1.618706 0,-2.517986 0,-3.057556c0,-0.539566 -0.174278,-1.394405 0,-1.438847c2.183708,-0.556831 1.258987,3.597122 1.258987,5.215828c0,0.719421 0.179863,1.618702 0.179863,2.517982c0,0.53957 0,0.899281 0,1.07914c0,0.359711 0.508713,0.930138 0,1.438847c-0.127182,0.127182 -0.179863,0.53957 -0.179863,0.719425c0,0 -0.052681,0.307034 -0.179855,0.179855c-0.381531,-0.381531 0,-1.978416 0,-4.136688c0,-2.338131 -0.119675,-3.688179 -0.359711,-4.136692c-0.432739,-0.808575 -0.196526,-1.42292 -0.539566,-1.798561c-0.947258,-1.037277 -1.394844,-2.002159 -1.798561,-2.697842c-0.650978,-1.121758 -1.110275,-1.772072 -1.258995,-1.978416c-0.235153,-0.32626 -0.674469,0.159096 -1.079132,3.237408c-0.541183,4.116886 -0.988052,8.415657 -1.258995,11.330936c-0.116508,1.25359 -0.539566,2.158272 0,2.158272c1.978416,0 0.210564,-5.960072 -0.359711,-9.892086c-0.39489,-2.722782 -0.626709,-4.839417 -1.618706,-10.251797c-0.394463,-2.152191 -0.084389,-2.932465 -0.359711,-3.597122c-0.097343,-0.234997 -0.359535,2.505753 -0.539574,6.474819c-0.081497,1.796715 -1.078606,7.713192 -1.258987,10.071941c-0.068573,0.896664 0,2.517986 0,4.316547c0,0.53957 -0.123962,1.453285 0,1.978416c0.0924,0.391415 -0.179855,0.899281 0.179855,0.899281c1.438843,0 -0.512222,-3.569214 -0.899284,-6.115105c-0.298592,-1.964012 -0.179855,-2.338131 -0.179855,-3.417267c0,-0.53957 0.068825,-0.912971 0,-1.079136c-0.097336,-0.234997 -0.179855,0.539566 -0.179855,1.978416c0,0.719425 0,2.158272 0,2.877697c0,2.877697 0.089752,3.768581 0.179855,5.215828c0.033524,0.538525 -0.211555,1.171535 0.179855,1.079136c0.525139,-0.123966 0,-1.258995 0,-2.697842c0,-0.719425 -0.042488,-4.686153 0.899284,-8.633095c0.172112,-0.721313 0.105354,-2.338127 0.359711,-2.338127c0.763062,0 0.831116,2.529495 1.258995,4.856113c0.465767,2.532677 0.539566,3.776978 0.539566,4.856117c0,0.719421 0,1.798561 0,3.237408c0,0.359711 -0.089485,2.144924 -0.179855,3.057552c-0.053169,0.536949 0,1.07914 0,1.618706c0,0.539566 0,1.07914 0,1.43885c0,0.359711 0,0.719421 0,1.079132c0,0.359718 0,1.43885 0,1.798561c0,1.258995 0.357018,1.754608 0,1.798561c-0.736008,0.090607 -0.539177,-2.500084 -0.719429,-5.21582c-0.131027,-1.974075 -0.179459,-2.859802 -0.359711,-5.575542c-0.095291,-1.435688 0,-0.719425 0,0c0,1.079136 -0.31694,1.69619 0.359711,3.776981c0.248741,0.764915 0.030861,1.649559 0.539574,2.158272c0.127174,0.127174 0.393166,0.304413 0.719421,0.539566c0.206345,0.14872 1.093575,1.023254 1.618706,0.899284c0.782822,-0.184799 1.161652,-1.703461 1.43885,-2.877701c0.495872,-2.100536 0.319481,-3.363045 0.539566,-4.136692c0.543564,-1.910763 0.179855,-3.237408 0.179855,-4.496399c0,-0.719425 0.179855,-1.43885 0.179855,-1.97842c0,-0.539566 0,-1.079136 0,-2.338127c0,-0.719425 0.359711,-1.43885 0.359711,-1.798561c0,-0.359715 0.171799,-0.818192 0.359718,-1.43885c0.156357,-0.516415 0.271736,-0.750931 0.539566,0.179855c0.556053,1.932446 0.359711,5.395683 0.359711,8.633095c0,3.417267 0.292374,5.542519 -0.539566,6.834534c-0.413109,0.641563 -0.748428,1.222343 -1.43885,1.798561c-0.308762,0.25769 -0.539566,0.179855 -1.43885,0.179855c-0.719421,0 -1.43885,0 -1.618706,0c-0.539566,0 -1.648911,-0.165527 -1.978416,-0.899284c-1.190315,-2.650661 -1.744728,-4.1036 -2.158272,-5.935249c-0.520988,-2.307552 -0.719421,-3.776978 -0.719421,-5.215828c0,-0.539566 0,-1.258991 0,-2.158272c0,-0.53957 0,-1.079136 0,-1.43885c0,-0.539566 0,-0.899281 0,-0.899281c0,-0.359711 1.159958,-0.208885 2.158272,2.697842c0.979332,2.851452 1.616951,5.717674 1.798561,7.014389c0.249458,1.781178 0.179855,2.877697 0.179855,3.776978c0,1.258995 0.268608,1.776718 0.359711,2.338127c0.086433,0.532608 0.330902,0.901604 0.359711,1.07914c0.091103,0.561409 0.179855,0.719421 0.179855,1.43885c0,0.359711 0.171799,0.818192 0.359718,1.43885c0.10424,0.344276 0.089485,0.885933 0.179855,1.798561c0.017723,0.178978 0,0.539566 0,0.719421c0,0.899277 0.179855,1.618706 0.179855,1.978416c0,0.539566 0,0.899284 0,1.07914c0,0.539566 0,1.079132 0,1.258987c0,0.359718 -0.153366,0.570709 -0.359711,0.719429c-0.326263,0.235153 -1.07914,-0.359711 -1.07914,0.179855c0,0.719421 1.035454,0.357361 2.158272,0.539566c0.710136,0.115242 1.618706,0 2.158272,0c0.179863,0 0.724243,0.498245 0.899284,0.539566c0.391411,0.092407 0.539566,0.179863 0.719421,0.179863c0.179855,0 0.628326,-0.517731 0.719429,-1.07914c0.057617,-0.355064 -0.021828,-0.697601 0.359711,-1.07914c0.127174,-0.127174 0.179855,-0.179855 0.179855,-0.539566c0,-0.179855 -0.137657,-0.207237 0,-0.539566c0.194672,-0.469986 0.222054,-0.566956 0.359711,-0.899284c0.097336,-0.234993 0.359711,-0.539566 0.359711,-0.899277c0,0 0.53463,-0.476173 0.719429,-1.258995c0.12397,-0.525131 -0.137657,-0.926659 0,-1.258995c0.292007,-0.704979 0.539566,-1.079132 0.539566,-1.618706c0,-0.539566 0.179855,-0.719421 0.179855,-1.079132c0,-0.539566 0,-1.07914 0,-1.258995c0,-0.539566 0,-0.899277 0,-1.43885c0,-0.719421 0.277061,-1.088753 0.359711,-1.438843c0.092407,-0.391418 0.179863,-0.539574 0.179863,-0.899284c0,-0.179855 0,-0.539566 0,-0.719425c0,-0.359711 0.042198,-0.566948 0.179855,-0.899281c0.097336,-0.234993 0.111031,-0.373402 0.179855,-0.539566c0.097336,-0.234993 0.628319,-0.021843 0.719421,0.539566c0.057617,0.355068 0.449196,1.785217 0.539566,2.697845c0.053169,0.536942 0,0.539566 0,1.079132c0,0.179855 -0.207237,0.042198 -0.539566,0.179855c-0.234993,0.097343 -0.235611,0.420418 -0.719421,0.719429c-0.21637,0.13372 -0.413437,0.507378 -0.719429,1.079132c-0.169739,0.317154 -0.217049,0.865593 -0.539566,1.258995c-0.411125,0.501495 -0.333221,1.110275 -0.539566,1.258995c-0.326256,0.235153 -0.72905,0.442352 -1.07914,0.359711c-0.391411,-0.0924 -0.359711,-0.359711 -0.359711,-1.07914c0,-0.719421 0,-1.978416 0,-2.697838c0,-0.899284 0.346657,-1.342834 0,-1.43885c-2.021362,-0.559883 -1.128975,3.262329 -2.158272,5.035973c-0.383003,0.659981 -1.167892,2.49614 -1.258995,3.057556c-0.144043,0.887665 0,1.438843 0,1.798561c0,0.539566 0,0.719421 0,0.719421c0,-0.719421 0,-2.877701 0,-5.395683c0,-1.978416 0,-4.856117 0,-6.654678c0,-0.899277 0.0243,-0.542038 0.359711,2.877701c0.193916,1.977089 0.538216,3.92366 0.719429,5.395683c0.065926,0.535522 0.111031,0.912964 0.179855,1.079132c0.097336,0.235001 0.622086,0.484436 0.719421,0.719429c0.068825,0.166168 0,0.539566 0,0.539566c0,0.359711 -0.088753,0.741272 -0.179855,0.179855c-0.086426,-0.5326 0,-1.079132 0,-1.978416c0,-0.179855 0,-0.719421 0,-1.258995c0,-0.359711 0.268608,-0.201698 0.359711,0.359718c0.086426,0.5326 0.179855,0.719421 0.179855,1.258987c0,0 0.179855,0.179855 0.179855,0.539574c0,0.179855 -0.243057,0.081223 -0.899277,0.899277c-0.355881,0.443649 -1.07914,0.899284 -1.618706,1.07914c0,0 -0.719421,0.359711 -0.719421,0.359711c0.359711,0 0.687843,-0.017609 0.899277,-0.359711c0.094559,-0.152992 0.539566,-1.43885 0.539566,-2.338135c0,-1.258987 0.224632,-1.818764 0,-3.057549c-0.274185,-1.512032 -1.246239,-2.878151 -1.258987,-3.057556c-0.090157,-1.268578 -0.188622,-2.030418 -0.539574,-2.877693c-0.248161,-0.599121 -0.631523,-1.264385 -0.719421,-1.97842c-0.090607,-0.736012 -0.359711,-1.43885 -0.359711,-2.158276c0,-0.539566 -0.179855,-1.618702 -0.179855,-2.877697c0,-0.719421 -0.351654,-1.177902 -0.539574,-1.798561c-0.052116,-0.172138 0,-0.359711 0,-0.899281c0,-0.179855 0,-0.899281 0,-2.158272c0,-0.899281 0.177505,-2.834011 0.359718,-3.956833c0.144051,-0.887669 0.262375,-1.024002 0.359711,-1.258995c0.068825,-0.166164 0,-0.719425 0,-2.158272c0,-0.899281 0,-3.417267 0,-3.956833l0,-0.719425l0,-0.719425l0,-0.179855" id="svg_17" fill-opacity="null" stroke-opacity="null" stroke-width="3.5" stroke="#00adb5" fill="none"/>
  <path d="m79.028778,73.273376c0.179855,0 0.359711,0.539566 0.359711,0.719421c0,0.179855 0.087456,0.687729 0.179855,1.07914c0.082642,0.35009 0,0.539566 0,0.719421c0,0.359718 0,0.539574 0,0.719429c0,0.359711 0,0.539566 0,0.899277c0,0.179855 0,0.179855 0,0.359711l0,0.359718l0,0.179855l0,0" id="svg_18" fill-opacity="null" stroke-opacity="null" stroke-width="3.5" stroke="#00adb5" fill="none"/>
  <path d="m59.064747,87.302155c0,0 0,0.359711 0,1.43885c0,0.179855 0,1.079132 0,1.258987c0,0.539574 0,0.539574 0,0.719429c0,0.539566 0,1.079132 0,1.258987c0,0.719429 0,1.258995 0,1.43885c0,0 0.088753,0.337868 0.179859,0.899284c0.08643,0.5326 0.179855,0.899277 0.179855,1.079132c0,0.539566 0.359711,0.899284 0.359711,1.258995c0,0.359711 -0.11916,0.955032 0.179855,1.43885c0.267445,0.432732 0.53957,1.079132 0.53957,1.438843c0,0.179863 0.074799,0.496605 0.359711,1.07914c0.249886,0.510918 0.232536,0.592247 0.359715,0.719421c0.25436,0.254356 0.042198,0.746811 0.179855,1.07914c0.097336,0.234993 0.53957,0.359711 0.53957,0.539566c0,0.179855 0.179855,0.539574 0.179855,0.539574c0.179855,0.179855 0.4547,0.201134 0.539566,0.359711c0.305992,0.571747 0.664288,0.981796 0.899281,1.079132c0.332333,0.137657 0.539574,0.179863 0.539574,0.179863c0.539566,0.359711 0.719421,0.359711 1.258987,0.359711c0.179855,0 0.904099,0.138535 1.07914,0.179855c0.782822,0.184799 1.258995,0.359711 1.43885,0.359711c0.179855,0 0.359711,0 1.258987,0l0,0" id="svg_20" fill-opacity="null" stroke-opacity="null" stroke-width="3.5" stroke="#00adb5" fill="none"/>
  <path d="m59.604317,87.122299c-0.179855,0 1.443752,0.600746 2.877697,0.719421c1.090294,0.090233 1.798565,0.179855 2.338131,0.179855c0,0 0.719421,0 0.899277,0c1.07914,0 1.258995,0.359711 2.51799,0.359711c1.079132,0 1.258987,0 1.798561,0c0.179855,0 0.539566,0 0,0c-1.978416,0 -3.057556,0 -3.417267,0l-0.359711,0" id="svg_21" fill-opacity="null" stroke-opacity="null" stroke-width="3.5" stroke="#00adb5" fill="none"/>
  <path d="m59.784172,86.942444c0,0 0.484272,0.573021 0.719425,0.899277c0.297447,0.412682 0.308292,0.577637 0.719425,1.07914c0.161259,0.196701 0.627026,0.328011 0.719425,0.719421c0.041325,0.175041 0.627022,0.148155 0.719421,0.539566c0.041321,0.175041 0.359715,0.359718 0.53957,0.539574c0.179855,0.179855 0.469543,0.74807 0.719425,1.258987c0.284916,0.582542 0.39394,0.877975 0.719425,1.43885c0.403717,0.695679 0.608826,1.50576 1.079132,2.158272c0.446175,0.619034 1.161659,1.563568 1.258995,1.798561c0.068825,0.166168 0.08252,0.484436 0.179855,0.719429c0.068825,0.166168 0.359711,0.359711 0.359711,0.539566c0,0.359711 -0.359711,0.719421 -1.079132,0.719421c-0.179855,0 -1.734283,-0.803505 -3.057556,-2.517982c-0.792442,-1.026718 -1.824512,-1.966568 -1.978416,-2.338127c-0.217655,-0.525467 -0.359711,-1.07914 -0.359711,-1.618706c0,-0.179855 0,-0.539574 0,-0.719429l0,-0.359711" id="svg_22" fill-opacity="null" stroke-opacity="null" stroke-width="3.5" stroke="#00adb5" fill="none"/>
  <path d="m60.143887,86.762581c0,0.179863 0,0.359718 0,0.719429c0,0.179855 0.087456,0.687721 0.179855,1.079132c0.041325,0.175049 0.321911,0.55368 0.539566,1.07914c0.307808,0.743111 0.53957,0.899284 0.53957,0.899284c0.53957,0.719421 0.552773,1.246689 0.719425,1.438843c0.589211,0.679367 0.539566,1.258995 0.539566,1.43885c0,0.359711 0.35165,0.638336 0.53957,1.258995c0.156357,0.516418 0.179855,1.079132 0.179855,1.258987c0,0.539574 0.448467,1.417007 0.53957,1.978424c0.144047,0.887665 0.179859,1.258987 0.179859,1.438843c0,0.179855 0.352715,0.345787 0.179855,-0.719421c-0.273315,-1.684235 -0.5238,-2.343643 -0.719429,-2.877701c-0.333141,-0.909454 -0.536263,-1.387047 -0.719421,-2.338127c-0.102036,-0.529831 -0.069584,-1.633522 -0.53957,-1.43885c-0.664665,0.275314 0,1.618706 0,2.877701c0,1.079132 -0.124451,2.288757 0.53957,3.417267c0.386971,0.657661 0.719421,0.899277 0.899281,1.079132c0.179855,0.179855 0.549793,0.5299 0.719425,0.719429c0.768051,0.858116 1.188202,1.53759 2.158272,2.158272c0.33876,0.216751 0.373398,0.470741 0.539566,0.539566c0.234993,0.097336 0.329239,0.427612 0.539574,0.719429c0.332558,0.461395 0.738411,0.638985 0.899277,0.719421c0.804337,0.402168 0.704605,0.609146 0.899277,1.07914c0.068825,0.166168 -0.199875,0.423553 -1.438843,0c-0.916489,-0.313309 -1.29245,-0.843987 -1.618706,-1.07914c-0.619034,-0.446175 -0.841667,-0.724068 -0.899284,-1.07914c-0.091103,-0.561409 -0.719421,-1.079132 -0.719421,-1.079132c-0.359711,-0.179855 -0.899281,-0.899284 -1.079136,-1.07914c-0.179859,-0.179855 -0.359711,-0.359718 0.359715,0.359711c0.359711,0.359718 0.833252,0.940742 1.079132,1.258995c1.1689,1.512955 1.589516,2.4888 2.158272,3.057556c0.284378,0.284378 0.539574,0.359711 0.899284,0.359711c0.179855,0 0.899277,0 0.899277,0c0.719429,0 1.258995,0 1.43885,0c0,0 0.719421,0 1.258995,0c0.179855,0 0.872787,-0.390846 1.079132,-0.539566c0.326263,-0.235153 0.3787,-0.217834 0.539574,-0.539574c0.402168,-0.804337 0.92614,-0.624863 1.079132,-0.719421c1.026321,-0.6343 0.719429,-1.43885 0.719429,-1.618706c0,-0.359711 0.390846,-0.513077 0.539566,-0.719421c0.235153,-0.326256 0.539566,-0.899284 1.07914,-1.43885c0.179855,-0.179855 -0.240799,-0.675362 0.179855,-1.258995c0.332558,-0.461395 0.775314,-0.733856 0.899277,-1.258987c0.0924,-0.391418 0.510757,-0.901604 0.539566,-1.07914c0.09111,-0.561409 0.179863,-0.899284 0.179863,-1.258995c0,-0.539566 0,-1.079132 0,-1.43885c0,-0.539566 0,-0.719421 0,-1.079132c0,-0.179855 0,-0.359711 0,-0.719429c0,-0.179855 0,-0.359711 0,-0.539566c0,-0.539566 -0.179863,-0.719421 -0.179863,-0.899277c0,-0.359711 -0.138535,-0.544388 -0.179855,-0.719429c-0.0924,-0.391411 -0.359711,-0.539566 -0.359711,-0.899277c0,-0.179855 -0.269104,-0.163269 -0.359711,-0.899284c-0.043953,-0.357018 0,-0.539566 0.179855,-0.539566c0.179855,0 0.427605,-0.210327 0.719421,0c0.461403,0.332558 0.179863,0.719421 0.179863,1.258995c0,0.359711 0,0.719421 0,1.43885c0,0.539566 0,1.079132 0,1.258987c0,0.179855 0,0.719429 0,1.07914c0,0.359711 0,0.899277 0,1.258987c0,0.359718 -0.087456,1.04744 -0.179863,1.43885c-0.165298,0.70018 -0.344894,0.968864 -0.539566,1.43885c-0.137657,0.332329 -0.179855,0.719421 -0.179855,0.899284c0,0.359711 0.18911,1.312706 0,1.618698c-0.211433,0.34211 -0.627022,0.687729 -0.719421,1.07914c-0.082642,0.35009 0,0.539566 0,0.719421c0,0.539574 0.051414,0.7575 -0.359718,1.258995c-0.161255,0.196701 -0.290886,0.373398 -0.359711,0.539566c-0.097336,0.235001 -0.650597,0.912971 -0.719421,1.07914c-0.194672,0.469986 -0.450317,0.196442 -0.359711,-0.539566c0.043953,-0.357018 0.179855,-0.899284 0.179855,-1.07914c0,-1.258995 0,-2.517982 0,-3.057556c0,-0.359711 0,-0.539566 -0.359711,-1.079132c0,0 -0.217056,-0.505875 -0.539574,-0.899284c-0.411125,-0.501495 -0.417519,-1.044785 -0.719421,-1.618706c-0.450905,-0.857193 -0.661812,-1.803207 -0.719429,-2.158272c-0.091103,-0.561409 -0.220177,-0.701942 -0.359711,-1.079132c-0.257286,-0.695511 -0.650597,-1.272682 -0.719421,-1.43885c-0.194672,-0.469986 -0.719429,-0.719421 -1.07914,-1.07914c-0.359711,-0.359711 -0.484428,-0.622086 -0.719421,-0.719421c-0.166168,-0.068825 -1.255692,0.307915 -1.43885,1.258995c-0.238083,1.236275 0,2.158272 0,3.776978c0,0.359711 0.945419,2.661324 1.07914,2.877693c0.299011,0.483818 0.651398,1.445343 0.719421,1.798561c0.183159,0.95108 0.974625,1.873894 1.258995,2.158272c0.284378,0.284378 0.719421,0.899284 0.719421,0.719429c0,-0.179855 -0.07782,-0.549301 -0.179855,-1.07914c-0.183159,-0.951073 -0.719421,-2.517982 -0.719421,-2.877693c0,-0.359718 0.208481,-1.289864 0,-1.978416c-0.18792,-0.620659 -0.94149,-1.466232 -1.07914,-1.798561c-0.097336,-0.235001 -0.060699,-0.235619 -0.359711,-0.719429c-0.13372,-0.21637 -0.597778,-0.633118 -0.899284,-0.899277c-0.486153,-0.429169 -0.352127,-1.057648 -1.438843,-1.43885c-0.169716,-0.059532 -0.573029,-0.124557 -0.899284,-0.359711c-0.412682,-0.297447 -0.7407,-0.274841 -0.899277,-0.359711c-0.571754,-0.305992 -0.539574,-0.359718 -0.539574,0.359711c0,0.359711 0.484688,1.087715 0.539574,1.258987c0.47216,1.473373 1.618706,2.51799 1.618706,3.417267c0,0.719429 0.510757,1.44117 0.539566,1.618706c0.091103,0.561409 0.344894,1.688286 0.539566,2.158272c0.068825,0.166168 -0.005653,0.793541 0.359711,1.43885c0.12532,0.221336 0.181107,0.569984 0.359711,1.07914c0.381203,1.086723 0.775322,1.714912 1.07914,1.978416c0.429665,0.37265 0.73867,0.345146 1.43885,0.179855c0.782822,-0.184799 1.356201,-0.549187 1.43885,-0.899284c0.0924,-0.391411 0.719421,-0.719421 0.719421,-0.899277c0,-0.179855 0,-0.359711 0,-0.539566c0,-0.359718 0.055298,-0.752884 -0.179855,-1.07914c-0.14872,-0.206345 -0.359711,-0.719421 -0.359711,-0.899277c0,-0.539574 -0.089249,-1.242409 -0.179855,-1.978424c-0.087898,-0.714035 0,-1.438843 0,-2.517982c0,-0.539566 -0.359718,-1.798561 -0.359718,-2.158272c0,-1.07914 -0.111031,-1.452538 -0.179855,-1.618706c-0.097336,-0.234993 -0.390846,-0.333221 -0.539566,-0.539566c-0.235153,-0.326256 -0.31839,-0.544388 -0.359711,-0.719429c-0.0924,-0.391411 -0.064621,-0.369003 -0.179855,-1.079132c-0.091103,-0.561417 -0.70182,-1.227417 -0.359711,-1.43885c0.152992,-0.094551 0.595322,0.060699 1.079132,0.359711c0.21637,0.13372 0.539566,0.179855 0.899284,0.179855c0.179855,0 0.55732,-0.077911 0.719421,0c1.037979,0.498878 0.899284,0.899284 0.899284,1.43885c0,0.179855 0,0.719421 0,0.899284c0,0.539566 0.179855,1.438843 0.179855,1.978416c0,0.179855 0,0.359711 0,0.539566c0,0.179855 0,0.359711 0,0.719421c0,0.359711 0,0.539574 0,0.359711c0,-0.359711 0.201134,-0.994263 0.359711,-1.079132c0.571747,-0.305992 0.719421,1.079132 0.719421,1.798561c0,0.719421 0,1.079132 0,1.258995c0,0.179855 -0.002319,0.388519 -0.179855,0.359711c-0.561409,-0.091103 -0.719421,-1.07914 -0.719421,-2.338135c0,-1.258987 0,-1.798561 0,-1.978416c0,-0.179855 -0.087456,-0.148155 -0.179855,-0.539566c-0.041321,-0.175041 0,-0.359711 0,-0.539566c0,-0.179855 0,-0.539566 0,-0.899284c0,-0.539566 0,-0.719421 0,-1.079132c0,-0.179855 0,-0.539574 0,-0.719429c0,0 0,-0.179855 0,-0.539566c0,-0.179855 0,-0.179855 0,-0.539566l0.359711,-0.179855" id="svg_23" fill-opacity="null" stroke-opacity="null" stroke-width="3.5" stroke="#00adb5" fill="none"/>
  <path d="m76.330933,86.582726c-0.179855,0 -0.359711,0.359718 -0.719421,0.539574l0,0.539566l-0.539566,0.539566" id="svg_24" fill-opacity="null" stroke-opacity="null" stroke-width="3.5" stroke="#00adb5" fill="none"/>
 </g>
</svg>