<svg width="48" height="48" xmlns="http://www.w3.org/2000/svg">

 <g>
  <title>background</title>
  <rect fill="none" id="canvas_background" height="402" width="582" y="-1" x="-1"/>
 </g>
 <g>
  <title>Layer 1</title>
  <path stroke="null" transform="rotate(-143.72097778320312 22.29849624633789,25.1407470703125) " id="svg_1" fill="#00adb5" d="m35.568804,8.026891c-4.834907,-3.946294 -11.952827,-3.220812 -15.896662,1.616554c-2.925701,3.588881 -3.269997,8.431166 -1.282914,12.302042l-2.078895,2.549434l1.341937,1.094371c-2.246125,2.586323 -1.746895,4.543894 -1.746895,4.543894l-2.246945,0.354134l0.283635,2.053483l-2.069058,0.138538l0.060662,2.3281l-4.256161,2.814214l-0.250845,2.712565l-2.56091,0.736958l0.734499,3.513464l3.588881,0.013936l12.786516,-15.681066l1.341117,1.091912l2.078895,-2.548614c4.19222,1.168149 8.868094,-0.145916 11.792975,-3.733158c3.943015,-4.839825 3.221632,-11.958565 -1.619833,-15.90076zm-2.369088,8.272133c-1.181265,1.450964 -3.318363,1.669838 -4.766867,0.486114c-1.453423,-1.184544 -1.669838,-3.318363 -0.485294,-4.769326c1.181265,-1.450964 3.315903,-1.668199 4.768507,-0.485294c1.448505,1.182904 1.666559,3.317543 0.483655,4.768507z"/>
 </g>
</svg>