<svg width="128" height="128" xmlns="http://www.w3.org/2000/svg">

 <g>
  <title>background</title>
  <rect fill="none" id="canvas_background" height="402" width="582" y="-1" x="-1"/>
 </g>
 <g>
  <title>Layer 1</title>
  <path id="svg_1" fill="#00adb5" d="m112.4,105.6l-26.3,-26.3c-0.8,1.1 -1.7,2.1 -2.5,3.1l26,26c1.2,1.2 1.2,3.1 0,4.2c-0.6,0.6 -1.3,0.9 -2.1,0.9s-1.6,-0.3 -2.1,-0.9l-26,-26c-1,0.9 -2,1.7 -3.1,2.5l26.3,26.3c1.4,1.4 3.2,2.1 5,2.1s3.6,-0.7 5,-2.1c2.5,-2.6 2.5,-7 -0.2,-9.8z"/>
  <path id="svg_2" fill="#00adb5" d="m93.9,56.4c0,-0.3 0,-0.7 0,-1c0,-0.4 0,-0.8 -0.1,-1.1c0,-0.5 -0.1,-1 -0.2,-1.5c0,-0.2 0,-0.4 -0.1,-0.5c0,0 0,0 0,0c-0.8,-5.9 -2.9,-11.8 -6.3,-16.9c0,0 0,0 0,0c-0.5,-0.7 -0.9,-1.4 -1.5,-2c0,0 0,0 -0.1,-0.1c-1.1,-1.4 -2.2,-2.7 -3.5,-4c-0.5,-0.5 -1,-0.9 -1.5,-1.4c-0.1,-0.1 -0.2,-0.2 -0.3,-0.3c-0.4,-0.3 -0.7,-0.6 -1.1,-0.9c-0.3,-0.3 -0.7,-0.6 -1,-0.8c0,0 0,0 -0.1,0c0,0 0,0 0,0c-6.7,-5.2 -15.2,-8.3 -24.3,-8.3c-22,0 -39.9,17.9 -39.9,39.9c0,22 17.9,39.9 39.9,39.9s40.2,-18 40.2,-40.1c0,-0.3 0,-0.6 -0.1,-0.9zm-39.8,36.9c-19.8,0 -35.9,-16.1 -35.9,-35.9c0,-19.8 16.1,-35.9 35.9,-35.9c8.3,0 16,2.9 22.1,7.6l0,0c0.1,0.1 0.1,0.1 0.2,0.2c3.4,2.7 6.4,6.1 8.6,9.9l0,0c1.5,2.5 2.6,5.1 3.4,7.8c0,0 0,0 0,0c1.3,4.3 1.8,8.7 1.4,13.1l0,0c-1.3,18.5 -16.8,33.2 -35.7,33.2z"/>
  <path id="svg_3" fill="#00adb5" d="m81,40.9l0,0c0,-0.1 -0.1,-0.1 -0.1,-0.2c-0.3,-0.4 -0.5,-0.8 -0.8,-1.2c-0.1,-0.1 -0.2,-0.2 -0.3,-0.4c-0.3,-0.5 -0.7,-0.9 -1,-1.4c0,0 -0.1,-0.1 -0.1,-0.1c-0.4,-0.5 -0.8,-0.9 -1.2,-1.4c0,0 0,0 0,0c-5.8,-6.4 -14.2,-10.5 -23.5,-10.5c-17.4,0 -31.6,14.1 -31.6,31.6s14.1,31.6 31.6,31.6c16.5,0 30.1,-12.7 31.5,-28.9l0,0c0,0 0,-0.1 0,-0.1c0,-0.3 0.1,-0.6 0.1,-0.8c0,0 0,0 0,0c0.3,-6.3 -1.2,-12.7 -4.6,-18.2zm-26.9,46c-16.3,0 -29.6,-13.3 -29.6,-29.6s13.3,-29.6 29.6,-29.6c9.2,0 17.5,4.2 22.9,10.9c0,0 0.1,0.1 0.1,0.1c0.7,0.9 1.4,1.9 2.1,2.9c3.5,5.6 5,12.1 4.4,18.4l0,0c-1.4,15.1 -14.1,26.9 -29.5,26.9z"/>
 </g>
</svg>