<svg xmlns="http://www.w3.org/2000/svg" width="12.811" height="9.008" viewBox="0 0 12.811 9.008">
  <path id="Icon_awesome-youtube" data-name="Icon awesome-youtube" d="M13.593,5.909a1.61,1.61,0,0,0-1.133-1.14A38.04,38.04,0,0,0,7.455,4.5a38.04,38.04,0,0,0-5.005.269,1.61,1.61,0,0,0-1.133,1.14,16.886,16.886,0,0,0-.268,3.1,16.886,16.886,0,0,0,.268,3.1A1.586,1.586,0,0,0,2.45,13.238a38.041,38.041,0,0,0,5.005.269,38.041,38.041,0,0,0,5.005-.269,1.586,1.586,0,0,0,1.133-1.122,16.886,16.886,0,0,0,.268-3.1,16.886,16.886,0,0,0-.268-3.1ZM6.145,10.918V7.108l3.348,1.9-3.348,1.9Z" transform="translate(-1.05 -4.5)" fill="#eee"/>
</svg>
