<svg xmlns="http://www.w3.org/2000/svg" width="17.202" height="13.762" viewBox="0 0 17.202 13.762">
  <path id="Icon_awesome-quidditch" data-name="Icon awesome-quidditch" d="M6.894,5.827l2.33,2.935S8.779,11.514,7.166,12.8,0,13.713,0,13.713s.1-.621.3-1.489L2.838,9.208a.161.161,0,0,0-.177-.255l-1.623.594A6.1,6.1,0,0,1,2.505,6.926c1.61-1.285,4.389-1.1,4.389-1.1Zm6.4,3.629A2.148,2.148,0,1,0,15.436,11.6,2.148,2.148,0,0,0,13.292,9.455ZM17.108.833,16.576.161a.43.43,0,0,0-.6-.07L9.725,4.872,8.808,3.717a.3.3,0,0,0-.5.059l-.68,1.468,2.33,2.935,1.58-.333a.3.3,0,0,0,.169-.473l-.917-1.153,6.249-4.782A.431.431,0,0,0,17.108.833Z" transform="translate(0 0.001)" fill="#eee"/>
</svg>
